<svg width="339" height="80" viewBox="0 0 339 80" fill="none" xmlns="http://www.w3.org/2000/svg">
<path d="M133.034 0C139.488 0.000257823 144.719 5.23204 144.719 11.6855V58.4268H156.536C158.522 58.4268 160.132 60.0367 160.132 62.0225V76.4043C160.132 78.39 158.522 80 156.536 80H124.177C122.191 80 120.581 78.39 120.581 76.4043V62.0225C120.581 60.0367 122.191 58.4268 124.177 58.4268H135.73V11.6855C135.73 10.1964 134.523 8.98854 133.034 8.98828H83.9131V58.4268H96.1797C98.1654 58.4268 99.7754 60.0367 99.7754 62.0225V76.4043C99.7754 78.39 98.1654 80 96.1797 80H63.8203C61.8346 80 60.2246 78.39 60.2246 76.4043V62.0225C60.2246 60.0367 61.8346 58.4268 63.8203 58.4268H74.9248V8.98828H26.9658C25.4767 8.98854 24.2695 10.1964 24.2695 11.6855V58.4268H35.9551C37.9408 58.4268 39.5508 60.0367 39.5508 62.0225V76.4043C39.5508 78.39 37.9408 80 35.9551 80H3.5957C1.60996 80 0 78.39 0 76.4043V62.0225C6.82919e-06 60.0367 1.60996 58.4268 3.5957 58.4268H15.2812V11.6855C15.2812 5.23204 20.5124 0.000254414 26.9658 0H133.034ZM311.144 0C317.597 0.000356777 322.828 5.2321 322.828 11.6855V58.4268H334.646C336.631 58.4269 338.241 60.0368 338.241 62.0225V76.4043C338.241 78.39 336.631 79.9999 334.646 80H302.286C300.3 80 298.69 78.39 298.69 76.4043V62.0225C298.69 60.0367 300.3 58.4268 302.286 58.4268H313.84V11.6855C313.84 10.1965 312.633 8.98864 311.144 8.98828H262.022V58.4268H274.289C276.275 58.4269 277.885 60.0368 277.885 62.0225V76.4043C277.885 78.39 276.275 79.9999 274.289 80H241.93C239.944 80 238.334 78.39 238.334 76.4043V62.0225C238.334 60.0367 239.944 58.4268 241.93 58.4268H253.034V8.98828H205.075C203.586 8.98854 202.379 10.1964 202.379 11.6855V58.4268H214.064C216.05 58.4269 217.66 60.0368 217.66 62.0225V76.4043C217.66 78.39 216.05 79.9999 214.064 80H181.705C179.719 80 178.109 78.39 178.109 76.4043V62.0225C178.109 60.0367 179.719 58.4268 181.705 58.4268H193.391V11.6855C193.391 5.23204 198.622 0.000254414 205.075 0H311.144Z" fill="#4791E6"/>
</svg>
