<svg width="248" height="64" viewBox="0 0 248 64" fill="none" xmlns="http://www.w3.org/2000/svg" role="img" aria-labelledby="vellic-logo-title">
  <title id="vellic-logo-title">Vellic</title>
  <path d="M147.17 99.4502L76.2812 156V59.2715L147.17 2.72168V99.4502ZM70.8877 106.918V150.62L0 94.0713V50.3682L70.8877 106.918ZM70.8877 56.5498V100.253L0 43.7031V0L70.8877 56.5498Z" fill="#4F46E5" transform="scale(0.410256)"/>
  <g fill="#111827">
    <path d="M9.21401 30.2983L0 0H7.01427L14.3191 25.5668L12.7419 24.7782H16.9754L15.3152 25.5668L22.0804 0H28.8872L20.2957 30.2983H9.21401Z" transform="translate(70.04 12.91)"/>
    <path d="M0 30.2983V0H6.64073V30.2983H0ZM5.81064 30.2983V24.6537H19.0506V30.2983H5.81064ZM5.81064 17.7224V12.0778H18.096V17.7224H5.81064ZM5.81064 5.64462V0H18.7601V5.64462H5.81064Z" transform="translate(102.46 12.91)"/>
    <path d="M0 30.2983V0H6.80675V30.2983H0ZM5.97666 30.2983V24.3217H18.677V30.2983H5.97666Z" transform="translate(126.28 12.91)"/>
    <path d="M0 30.2983V0H6.80675V30.2983H0ZM5.97666 30.2983V24.3217H18.677V30.2983H5.97666Z" transform="translate(148.59 12.91)"/>
    <path d="M0 30.2983V0H6.80675V30.2983H0Z" transform="translate(170.98 12.91)"/>
    <path d="M15.5227 32C12.7834 32 10.4315 31.5296 8.46693 30.5888C6.50238 29.6204 4.89754 28.3614 3.6524 26.8119C2.40726 25.2348 1.48034 23.5469 0.871605 21.7484C0.290541 19.9222 0 18.1513 0 16.4358V15.5227C0 13.6412 0.304366 11.7873 0.9131 9.96109C1.52183 8.10722 2.44877 6.4332 3.69391 4.93904C4.96671 3.44488 6.55772 2.25508 8.46693 1.36965C10.4038 0.45655 12.6866 0 15.3152 0C18.0545 0 20.4756 0.511889 22.5785 1.53567C24.6814 2.55945 26.3554 3.98444 27.6005 5.81063C28.8733 7.60916 29.6204 9.7259 29.8418 12.1608H22.9935C22.7998 10.9434 22.3571 9.90575 21.6654 9.04799C20.9736 8.19023 20.0744 7.52616 18.9676 7.05577C17.8885 6.58539 16.671 6.35019 15.3152 6.35019C13.9594 6.35019 12.7557 6.58539 11.7043 7.05577C10.6528 7.52616 9.76741 8.19023 9.04799 9.04799C8.35625 9.90575 7.8167 10.9295 7.42932 12.1193C7.06962 13.2815 6.88976 14.5819 6.88976 16.0208C6.88976 17.4319 7.06962 18.7324 7.42932 19.9222C7.8167 21.0843 8.37009 22.1081 9.0895 22.9935C9.83658 23.8513 10.7497 24.5153 11.8288 24.9857C12.9079 25.4284 14.1392 25.6498 15.5227 25.6498C17.6256 25.6498 19.3965 25.1379 20.8353 24.1141C22.3018 23.0904 23.1872 21.6792 23.4916 19.8807H30.2983C30.0493 22.0943 29.3022 24.128 28.0571 25.9818C26.8396 27.808 25.1656 29.2745 23.035 30.3813C20.9321 31.4604 18.428 32 15.5227 32Z" transform="translate(182.22 12)"/>
  </g>
</svg>
